<svg xmlns="http://www.w3.org/2000/svg" viewBox="0 0 399.97 191.14"><defs><style>.cls-1{fill:#f2f2f2;}</style></defs><title>arrow</title><g id="Layer_2" data-name="Layer 2"><g id="Layer_1-2" data-name="Layer 1"><path id="_Compound_Path_" data-name="&lt;Compound Path&gt;" class="cls-1" d="M16.75,32.16l.59-.36-1.85-2.41a26.77,26.77,0,0,0-.89-2.84C11.87,20.36,9.07,14.21,6.38,8a21.68,21.68,0,0,1-1.29-4.5C4.74,1.69,5.32.58,6.59.13S9,.34,9.75,1.91c.64,1.27,1.21,2.58,1.76,3.75l4.84-.11c.35.57.66,1,.88,1.45C26.75,26.85,39.4,44.55,53.86,60.8a423.66,423.66,0,0,0,58.58,54.07c5.14,3.94,10.26,8.07,15.89,11.18a247.13,247.13,0,0,0,55.31,21.78,365.59,365.59,0,0,0,54.87,10.27c30.71,3.4,61.46,4.07,92.27-.13a155.85,155.85,0,0,0,30.78-7.34c1.08-.38,2.4-.49,3.1-1.79-1.69-.64-3.25-1.17-4.75-1.82-7.11-3.07-15.07-4-21.42-9-2.3-1.81-5-3.06-7.68-4.62a16.79,16.79,0,0,1,1.05-1.88c.12-.17.52-.12.8-.16a2.39,2.39,0,0,0-.51-.34c-.93-.37-.6-1-.18-1.46a2.17,2.17,0,0,1,1.21-.57,2.67,2.67,0,0,1,1,.27c-.68-.63-.57-1.1.35-1.15a4.28,4.28,0,0,1,1.8.31,25.58,25.58,0,0,1,3.37,1.53c1.89,1.07,3.68,2.21,6.06,1.62.59-.14,1.34.38,2,.63,1,.41,2.07.93,3.14,1.25a197.06,197.06,0,0,0,39.61,7.77,4.75,4.75,0,0,1,2.1.4c1.89,1.23,2.9,3.7,5.66,3.83.6,0,1.12,1.45,1.67,2.23-.88,3-1.65,6-2.68,8.93a39.2,39.2,0,0,1-3.13,7.21c-2.59,4.31-5.42,8.49-8.28,12.63-2.39,3.45-4.93,6.8-7.47,10.13-.72,1-1.52,2.13-3.16,1.41-.49-1.39.42-2.32,1.17-3.31,1.88-2.53,3.85-5,5.58-7.62,3.81-5.77,7.52-11.62,11.23-17.47a11.76,11.76,0,0,0,.86-2.33,1.73,1.73,0,0,0-1.29.75q-11.67,15.24-23.34,30.48a7.27,7.27,0,0,1-2.11,2.28,5.51,5.51,0,0,1-3.2.27c-1.24-.23-1.27-1.46-1.31-2.53,0-.81.26-1.79-.09-2.41-.85-1.48-.16-2.61.52-3.79a101.81,101.81,0,0,1,10.34-15.4,13.6,13.6,0,0,0,1-1.5c-4.62,1.63-8.76,3.27-13,4.56-24.09,7.32-48.61,11.26-73.69,10.36-11.94-.43-23.88-1.12-35.82-1.65-1,0-2.3-.1-2.88.47-1.28,1.25-2.63,1.09-4,.89-3.26-.45-6.54-.85-9.76-1.53-10.66-2.27-21.3-4.68-32-7a345.06,345.06,0,0,1-39.62-10.67,232.34,232.34,0,0,1-41.32-18.54l-4.39-2.54c-2.2,2.38-4,1.24-5.9-.35s-4.06-3.17-6.15-4.68C83.56,118.48,63.13,100,46,77.9Q43.24,74.35,40.2,71A190.86,190.86,0,0,1,12.4,32.24C10.46,28.56,8.33,25,6.3,21.37,4.68,18.48,3,15.61,1.49,12.64A15.16,15.16,0,0,1,.06,8.22C-.22,6.48.45,6,2.59,5.82a36.26,36.26,0,0,0,1.87,4.91c3.39,6.07,6.91,12.07,10.4,18.08.14.24.47.36.71.54C16,30.29,16.36,31.22,16.75,32.16ZM207.3,162.88c28,5.41,56.15,9.78,84.85,9.48,18.22-.2,36.26-2.06,53.88-7.36a4.47,4.47,0,0,0,1.78-.92A12.44,12.44,0,0,0,346,164c-4.94.42-9.89.71-14.8,1.35-25.41,3.3-50.84,3.27-76.27,1.58-12.12-.81-24.3-1.11-36.28-3.22-6.68-1.18-13.32-2.59-20-3.9L193,158.61l-.11.42C197.66,160.33,202.42,161.94,207.3,162.88Zm-36.36-7.12c-5.77-2.78-11.62-5.43-17.31-8.38q-21.1-10.9-42-22.09c-4.07-2.18-7.82-5-11.72-7.45-.58-.37-1.21-.68-1.81-1C119.22,135.76,143.82,148.16,170.94,155.76ZM35,49.91l3.59-1.12L20.34,21.33C24.61,31.11,28.88,41,35,49.91Zm6.57,2.41L41,52.7A27,27,0,0,0,42.91,56a112.42,112.42,0,0,0,7.3,8.8C56,70.78,62.07,76.53,68,82.35a18.26,18.26,0,0,0,1.61,1.26C59.88,73.52,50,63.6,41.56,52.32ZM372.43,153.08c-3.4,2-7.06,3.47-10.63,5.11-1,.47-2.12.76-3.11,1.11,0,1.89.94,1.48,1.84,1.11,4.32-1.78,8.65-3.54,13-5.35,1.52-.64,3-1.39,4.92-2.3C375.94,151.5,374.34,152,372.43,153.08Z"/></g></g></svg>