<svg xmlns="http://www.w3.org/2000/svg" viewBox="0 0 70.02 96.98"><defs><style>.cls-1{fill:#b3b3b3;}</style></defs><title>constantly-innovating</title><g id="Layer_2" data-name="Layer 2"><g id="Layer_1-2" data-name="Layer 1"><path class="cls-1" d="M69,86.57,47,51.32V21.74h2a1.69,1.69,0,0,0,1.69-1.69V9a1.69,1.69,0,0,0-1.69-1.68H22.46A1.69,1.69,0,0,0,20.77,9V20.05a1.69,1.69,0,0,0,1.69,1.69h2v7.05a1.69,1.69,0,0,0,3.38,0v-7H39.19a1.69,1.69,0,1,0,0-3.38h-15V10.65h23.1v7.71h-2a1.69,1.69,0,0,0-1.69,1.69V51.8a1.68,1.68,0,0,0,.26.9L64.49,85.78H58.67a1.69,1.69,0,0,0,0,3.38h7.8A3.43,3.43,0,0,1,63.2,93.6h-55a3.41,3.41,0,0,1-3.27-4.44H52a1.69,1.69,0,0,0,0-3.38H6.92L27.07,53.49H39.53a1.69,1.69,0,0,0,0-3.38H27.82V34.42a1.69,1.69,0,1,0-3.38,0v16.9l-22,35.25A6.8,6.8,0,0,0,8.21,97h55A6.8,6.8,0,0,0,69,86.57Z"/><path class="cls-1" d="M32.77,58.63H27.7a1.69,1.69,0,1,0,0,3.38h5.07a1.69,1.69,0,0,0,0-3.38Z"/><path class="cls-1" d="M29.05,65.05H24a1.69,1.69,0,0,0,0,3.38h5.06a1.69,1.69,0,0,0,0-3.38Z"/><path class="cls-1" d="M25.34,71.47H20.27a1.69,1.69,0,0,0,0,3.38h5.07a1.69,1.69,0,1,0,0-3.38Z"/><path class="cls-1" d="M62.05,45a7.18,7.18,0,1,0,7.18,7.18A7.19,7.19,0,0,0,62.05,45Zm0,11a3.81,3.81,0,1,1,3.8-3.8A3.8,3.8,0,0,1,62.05,56Z"/><path class="cls-1" d="M14,22.31a6.38,6.38,0,1,0,6.38,6.38A6.38,6.38,0,0,0,14,22.31Zm0,9.37a3,3,0,1,1,3-3A3,3,0,0,1,14,31.68Z"/><path class="cls-1" d="M5.05,53.65a5,5,0,1,0,5,5A5,5,0,0,0,5.05,53.65Zm0,6.71a1.67,1.67,0,1,1,1.66-1.67A1.67,1.67,0,0,1,5.05,60.36Z"/><circle class="cls-1" cx="17.98" cy="44.94" r="1.69"/><circle class="cls-1" cx="42.87" cy="1.69" r="1.69"/><circle class="cls-1" cx="54.64" cy="30.76" r="1.69"/></g></g></svg>