<svg xmlns="http://www.w3.org/2000/svg" viewBox="0 0 98.02 88.64"><defs><style>.cls-1{fill:#b3b3b3;}</style></defs><title>dashboard</title><g id="Layer_2" data-name="Layer 2"><g id="Layer_1-2" data-name="Layer 1"><path class="cls-1" d="M72.12,76.62H69.86V43.74A2.79,2.79,0,0,0,67.08,41H62a2.78,2.78,0,0,0-2.77,2.78V76.62H53.5v-18a2.78,2.78,0,0,0-2.78-2.77H45.66a2.78,2.78,0,0,0-2.78,2.77v18H37.13V67.3a2.77,2.77,0,0,0-2.77-2.77H29.3a2.78,2.78,0,0,0-2.78,2.77v9.32H24.13a1,1,0,1,0,0,2.06h48a1,1,0,1,0,0-2.06Zm-37.05,0H28.59V67.3a.71.71,0,0,1,.71-.71h5.06a.71.71,0,0,1,.71.71v9.32Zm16.36,0H45v-18a.71.71,0,0,1,.71-.71h5.06a.71.71,0,0,1,.71.71Zm16.36,0H61.31V43.74A.71.71,0,0,1,62,43h5.06a.7.7,0,0,1,.71.71V76.62Z"/><path class="cls-1" d="M69.86,26.91a1.08,1.08,0,0,0-.3-.79,1.09,1.09,0,0,0-.79-.3H62.48a1,1,0,1,0,0,2.06h3.85L56.13,38.09l-3.85-3.85a1.06,1.06,0,0,0-.73-.3,1,1,0,0,0-.73.3L32.26,52.8A1,1,0,0,0,33,54.56a1,1,0,0,0,.73-.3L51.55,36.43l3.85,3.85a1,1,0,0,0,1.46,0L67.79,29.34v3.5a1,1,0,0,0,2.07,0V26.91Z"/><circle class="cls-1" cx="29.51" cy="57.13" r="1.03"/><path class="cls-1" d="M96.46,0H1.56A1.56,1.56,0,0,0,0,1.56V87.07a1.56,1.56,0,0,0,1.56,1.57h94.9A1.56,1.56,0,0,0,98,87.07V70.45a1.59,1.59,0,0,0-1.36-1.61,1.56,1.56,0,0,0-1.76,1.55V85.51H3.13V15.64H94.9V70.4A1.61,1.61,0,0,0,96.26,72,1.57,1.57,0,0,0,98,70.46V1.56A1.56,1.56,0,0,0,96.46,0ZM2.92,3.13h58v9.38h-58ZM64,12.51V3.13H94.9v9.38Z"/><path class="cls-1" d="M79.51,6.09a1.67,1.67,0,1,0,1.67,1.67A1.67,1.67,0,0,0,79.51,6.09Z"/><path class="cls-1" d="M71,6.09a1.67,1.67,0,1,0,1.67,1.67A1.67,1.67,0,0,0,71,6.09Z"/><path class="cls-1" d="M88.06,6.09a1.67,1.67,0,1,0,1.67,1.67A1.66,1.66,0,0,0,88.06,6.09Z"/></g></g></svg>