<svg xmlns="http://www.w3.org/2000/svg" viewBox="0 0 93.5 67.99"><defs><style>.cls-1{fill:#b3b3b3;}</style></defs><title>earn-big</title><g id="Layer_2" data-name="Layer 2"><g id="Layer_1-2" data-name="Layer 1"><path class="cls-1" d="M90.4,13.17,8.06,0V7L3.22,6.59v6.59H0V68H93.5V13.18H90.4ZM11.28,3.78l48.21,7.91L11.28,7.24Zm-4.83,6.3,1.61.13h0L19,11.08l32.12,2.09H6.45ZM90.27,64.76h-87V16.4H90.27Z"/><path class="cls-1" d="M10.48,27.91a4.26,4.26,0,1,0-4.26-4.26A4.26,4.26,0,0,0,10.48,27.91Zm0-6.08a1.83,1.83,0,1,1-1.83,1.82A1.83,1.83,0,0,1,10.48,21.83Z"/><path class="cls-1" d="M78.76,23.65A4.26,4.26,0,1,0,83,19.39,4.26,4.26,0,0,0,78.76,23.65Zm6.09,0A1.83,1.83,0,1,1,83,21.83,1.83,1.83,0,0,1,84.85,23.65Z"/><path class="cls-1" d="M10.48,53.25a4.26,4.26,0,1,0,4.26,4.26A4.26,4.26,0,0,0,10.48,53.25Zm0,6.08a1.83,1.83,0,1,1,1.82-1.82A1.83,1.83,0,0,1,10.48,59.33Z"/><path class="cls-1" d="M83,53.25a4.26,4.26,0,1,0,4.26,4.26A4.26,4.26,0,0,0,83,53.25Zm0,6.08a1.83,1.83,0,1,1,1.83-1.82A1.82,1.82,0,0,1,83,59.33Z"/><path class="cls-1" d="M50.86,62.76l.59-.11c.6-.13,1.18-.28,1.76-.46l.8-.26c.34-.12.68-.24,1-.38l.87-.35.94-.46c.44-.22.87-.45,1.29-.7l.2-.12H76l-.16-1.75q0-.33,0-.66A7.26,7.26,0,0,1,83,50.25l.66,0,1.76.17V30.71l-1.76.16c-.22,0-.44,0-.66,0a7.26,7.26,0,0,1-7.25-7.26q0-.33,0-.66L76,21.23H58.31a22.38,22.38,0,0,0-23.13,0H17.54L17.7,23q0,.33,0,.66a7.26,7.26,0,0,1-7.25,7.26c-.22,0-.44,0-.66,0l-1.76-.16V50.45l1.76-.17.66,0a7.26,7.26,0,0,1,7.25,7.26c0,.22,0,.44,0,.65l-.16,1.76H35.15c.25.16.51.31.77.45l.25.13c.52.28,1,.54,1.6.77l.37.16a19.87,19.87,0,0,0,1.87.69h.05a19.39,19.39,0,0,0,2,.52l.48.09c.52.09,1,.18,1.58.24l.57.06c.69.06,1.37.11,2.07.11s1.36,0,2-.11L49.4,63C49.89,62.92,50.38,62.84,50.86,62.76Zm-8.57-3.38L42,59.3c-.52-.13-1-.28-1.55-.46l-.71-.26c-.37-.14-.73-.3-1.09-.47l-.52-.25,4.27-2.1a2.68,2.68,0,0,0,1.5-2.42V50.67l-1-.41A7.24,7.24,0,0,1,38.8,45l-.23-.86-.85-.26a1.19,1.19,0,0,1-.85-1.13V41.38a1.18,1.18,0,0,1,.65-1l.75-.4.09-.86a13.29,13.29,0,0,1,.86-3.55c.19-.45.34-.79.47-1.06a4.46,4.46,0,0,0,.58-2.36,10.25,10.25,0,0,0,5.57,1c.21,0,.42,0,.64,0,5.13,0,7.63,1.85,8.12,6l.1.84.75.4a1.2,1.2,0,0,1,.65,1v1.41a1.19,1.19,0,0,1-.85,1.13l-.85.26-.23.86a7.26,7.26,0,0,1-4.11,5.22l-1,.42v2.68a2.67,2.67,0,0,0,1.47,2.39L55,58l-.18.09c-.56.25-1.13.49-1.71.69l-.2.07A19.69,19.69,0,0,1,42.29,59.38ZM62.53,24.46h10a10.5,10.5,0,0,0,9.64,9.64v13a10.5,10.5,0,0,0-9.64,9.64h-10l.07-.08c.27-.27.53-.56.79-.85s.51-.53.75-.82c.09-.11.16-.23.25-.34A22.33,22.33,0,0,0,69.18,43a.78.78,0,0,1,0-.16,22.1,22.1,0,0,0,0-4.6c0-.06,0-.11,0-.16A22.4,22.4,0,0,0,64.4,26.55l-.26-.34c-.24-.29-.5-.55-.75-.83s-.52-.58-.79-.85A.46.46,0,0,1,62.53,24.46Zm-5.44-.2a19.3,19.3,0,0,1,3.59,2.93l.42.46c.35.39.67.78,1,1.19.16.21.33.42.48.64.29.42.56.85.82,1.29.12.19.24.37.35.57a18.8,18.8,0,0,1,.89,1.87c.1.24.18.49.27.74.16.45.32.91.45,1.37.08.27.14.53.21.8.11.49.21,1,.28,1.49,0,.24.08.47.11.71a18.91,18.91,0,0,1,.14,2.26A18.62,18.62,0,0,1,66,42.83c0,.24-.07.48-.11.72-.08.5-.17,1-.29,1.48-.06.27-.13.54-.2.81-.13.46-.29.91-.45,1.37-.09.24-.17.49-.27.73-.27.64-.56,1.27-.89,1.88-.11.19-.23.38-.35.57-.26.43-.53.87-.82,1.28l-.48.65c-.32.4-.64.8-1,1.18l-.42.47a21.06,21.06,0,0,1-2.52,2.16,5.47,5.47,0,0,0-.86-.55L52.3,53v-.3a10.34,10.34,0,0,0,4.76-6.1,4.39,4.39,0,0,0,2.26-3.85v-1.4A4.39,4.39,0,0,0,57.69,38c-.67-3.86-3.23-8.09-11.21-8.09-.31,0-.61,0-.91,0a6.87,6.87,0,0,1-4.39-1,6.11,6.11,0,0,1-1.24-1.07,1.89,1.89,0,0,0-3.37,1.38c.07.53.15,1.15.29,1.82.26,1.31.26,1.31-.1,2.06-.14.31-.32.7-.53,1.21a15.65,15.65,0,0,0-1,3.68,4.38,4.38,0,0,0-1.61,3.39v1.4a4.39,4.39,0,0,0,2.26,3.85,10.34,10.34,0,0,0,4.76,6.1V53l-5.18,2.55a5,5,0,0,0-.48.32A18.24,18.24,0,0,1,32.81,54l-.42-.46c-.34-.38-.67-.78-1-1.18l-.49-.65c-.29-.41-.56-.85-.82-1.28-.11-.2-.24-.38-.35-.58a17.73,17.73,0,0,1-.88-1.87c-.1-.24-.19-.49-.28-.74-.16-.45-.31-.9-.45-1.37-.07-.26-.14-.53-.2-.8-.12-.49-.21-1-.29-1.49,0-.23-.08-.47-.11-.71a20.91,20.91,0,0,1-.14-2.25,18.92,18.92,0,0,1,.15-2.26c0-.24.07-.47.11-.71.08-.5.17-1,.28-1.49l.21-.8c.13-.46.29-.92.45-1.37.09-.25.17-.5.27-.74.27-.64.56-1.26.89-1.87.11-.2.23-.38.35-.57.26-.44.53-.87.82-1.29l.48-.64c.32-.41.64-.8,1-1.19l.42-.46a19.63,19.63,0,0,1,3.59-2.93,19.21,19.21,0,0,1,20.68,0ZM20.93,56.7a10.5,10.5,0,0,0-9.65-9.64v-13a10.5,10.5,0,0,0,9.65-9.64H31a.46.46,0,0,1-.07.07c-.27.27-.53.57-.79.85s-.51.54-.75.83c-.09.11-.17.23-.25.34a22.33,22.33,0,0,0-4.79,11.57c0,.05,0,.11,0,.16a22.1,22.1,0,0,0,0,4.6.88.88,0,0,0,0,.16A22.4,22.4,0,0,0,29.1,54.61l.26.34c.24.29.5.55.75.83s.52.57.79.85a.46.46,0,0,1,.07.07Z"/></g></g></svg>