<svg xmlns="http://www.w3.org/2000/svg" viewBox="0 0 63.25 64.69"><defs><style>.cls-1{fill:#b3b3b3;}</style></defs><title>offices</title><g id="Layer_2" data-name="Layer 2"><g id="Layer_1-2" data-name="Layer 1"><polygon class="cls-1" points="44.25 7.1 42.08 7.1 42.08 2.41 21.17 2.41 21.17 7.1 19 7.1 19 0.25 44.25 0.25 44.25 7.1"/><path class="cls-1" d="M44.5,7.35H41.83V2.66H21.42V7.35H18.75V0H44.5Zm-2.17-.5H44V.5H19.25V6.85h1.67V2.16H42.33Z"/><path class="cls-1" d="M37,64.44H27.66V50.74H37Zm-7.21-2.16h5V52.9h-5Z"/><path class="cls-1" d="M37.28,64.69H27.41V50.49h9.87Zm-9.37-.5h8.87V51H27.91Zm7.21-1.66H29.57V52.65h5.55Zm-5-.5h4.55V53.15H30.07Z"/><polygon class="cls-1" points="29.82 33.07 27.66 33.07 27.66 28.38 24.05 28.38 24.05 33.07 21.89 33.07 21.89 26.21 29.82 26.21 29.82 33.07"/><path class="cls-1" d="M30.07,33.32H27.41V28.63H24.3v4.69H21.64V26h8.43Zm-2.16-.5h1.66V26.47H22.14v6.35H23.8V28.13h4.11Z"/><polygon class="cls-1" points="29.82 44.61 27.66 44.61 27.66 39.92 24.05 39.92 24.05 44.61 21.89 44.61 21.89 37.76 29.82 37.76 29.82 44.61"/><path class="cls-1" d="M30.07,44.86H27.41V40.17H24.3v4.69H21.64V37.51h8.43Zm-2.16-.5h1.66V38H22.14v6.35H23.8V39.67h4.11Z"/><polygon class="cls-1" points="42.8 33.07 40.64 33.07 40.64 28.38 37.03 28.38 37.03 33.07 34.87 33.07 34.87 26.21 42.8 26.21 42.8 33.07"/><path class="cls-1" d="M43.05,33.32H40.39V28.63H37.28v4.69H34.62V26h8.43Zm-2.16-.5h1.66V26.47H35.12v6.35h1.66V28.13h4.11Z"/><polygon class="cls-1" points="29.82 21.53 27.66 21.53 27.66 16.84 24.05 16.84 24.05 21.53 21.89 21.53 21.89 14.68 29.82 14.68 29.82 21.53"/><path class="cls-1" d="M30.07,21.78H27.41V17.09H24.3v4.69H21.64V14.42h8.43Zm-2.16-.5h1.66V14.92H22.14v6.36H23.8V16.59h4.11Z"/><polygon class="cls-1" points="42.8 21.53 40.64 21.53 40.64 16.84 37.03 16.84 37.03 21.53 34.87 21.53 34.87 14.68 42.8 14.68 42.8 21.53"/><path class="cls-1" d="M43.05,21.78H40.39V17.09H37.28v4.69H34.62V14.42h8.43Zm-2.16-.5h1.66V14.92H35.12v6.36h1.66V16.59h4.11Z"/><polygon class="cls-1" points="42.8 44.61 40.64 44.61 40.64 39.92 37.03 39.92 37.03 44.61 34.87 44.61 34.87 37.76 42.8 37.76 42.8 44.61"/><path class="cls-1" d="M43.05,44.86H40.39V40.17H37.28v4.69H34.62V37.51h8.43Zm-2.16-.5h1.66V38H35.12v6.35h1.66V39.67h4.11Z"/><polygon class="cls-1" points="11.43 64.44 0.25 64.44 0.25 23.33 11.43 23.33 11.43 25.49 2.41 25.49 2.41 62.28 11.43 62.28 11.43 64.44"/><path class="cls-1" d="M11.68,64.69H0V23.08H11.68v2.66h-9V62h9ZM.5,64.19H11.18V62.53h-9V25.24h9V23.58H.5Z"/><polygon class="cls-1" points="6.74 24.41 4.58 24.41 4.58 17.56 11.43 17.56 11.43 19.72 6.74 19.72 6.74 24.41"/><path class="cls-1" d="M7,24.66H4.33V17.31h7.35V20H7Zm-2.16-.5H6.49V19.47h4.69V17.81H4.83Z"/><polygon class="cls-1" points="63 64.44 53.26 64.44 53.26 62.28 60.84 62.28 60.84 39.92 53.26 39.92 53.26 37.76 63 37.76 63 64.44"/><path class="cls-1" d="M63.25,64.69H53V62h7.58V40.17H53V37.51H63.25Zm-9.74-.5h9.24V38H53.51v1.66h7.58V62.53H53.51Z"/><polygon class="cls-1" points="60.12 38.84 57.95 38.84 57.95 34.15 53.26 34.15 53.26 31.98 60.12 31.98 60.12 38.84"/><path class="cls-1" d="M60.37,39.09H57.7V34.4H53V31.74h7.36Zm-2.17-.5h1.67V32.24H53.51V33.9H58.2Z"/><path class="cls-1" d="M50,64.44H14.68V6H50ZM16.84,62.28h31V8.18h-31Z"/><path class="cls-1" d="M50.27,64.69H14.42V5.77H50.27Zm-35.35-.5H49.77V6.27H14.92ZM48.1,62.53H16.59V7.93H48.1Zm-31-.5H47.6V8.43H17.09Z"/></g></g></svg>