<svg xmlns="http://www.w3.org/2000/svg" viewBox="0 0 58.5 64.5"><defs><style>.cls-1{fill:#b3b3b3;}</style></defs><title>online</title><g id="Layer_2" data-name="Layer 2"><g id="Layer_1-2" data-name="Layer 1"><g id="mobile"><path class="cls-1" d="M45.25,64.5h-32A5.26,5.26,0,0,1,8,59.25V31h2.5V59.25A2.75,2.75,0,0,0,13.25,62h32A2.75,2.75,0,0,0,48,59.25V31h2.5V59.25A5.26,5.26,0,0,1,45.25,64.5Z"/><path class="cls-1" d="M50.5,8.5H48V5.25A2.75,2.75,0,0,0,45.25,2.5h-32A2.75,2.75,0,0,0,10.5,5.25V8.5H8V5.25A5.26,5.26,0,0,1,13.25,0h32A5.26,5.26,0,0,1,50.5,5.25Z"/><path class="cls-1" d="M43.25,52.5h-28A1.25,1.25,0,0,1,14,51.25V31h2.5V50H42V31h2.5V51.25A1.25,1.25,0,0,1,43.25,52.5Z"/><path class="cls-1" d="M33.25,58.5h-8a1.25,1.25,0,0,1,0-2.5h8a1.25,1.25,0,0,1,0,2.5Z"/><path class="cls-1" d="M34.25,46.5a1.21,1.21,0,0,1-.88-.37,1.24,1.24,0,0,1,0-1.76l3-3a1.24,1.24,0,0,1,1.76,1.76l-3,3A1.21,1.21,0,0,1,34.25,46.5Z"/><path class="cls-1" d="M27.25,46.5a1.21,1.21,0,0,1-.88-.37,1.24,1.24,0,0,1,0-1.76l10-10a1.24,1.24,0,0,1,1.76,1.76l-10,10A1.21,1.21,0,0,1,27.25,46.5Z"/><path class="cls-1" d="M50.25,29.5a8.24,8.24,0,0,1-7-3.89,8.24,8.24,0,0,1-14,0,8.24,8.24,0,0,1-14,0A8.25,8.25,0,0,1,0,21.25v-5a1.25,1.25,0,0,1,2.5,0v5a5.75,5.75,0,0,0,11.5,0,1.25,1.25,0,0,1,2.5,0,5.75,5.75,0,0,0,11.5,0,1.25,1.25,0,0,1,2.5,0,5.75,5.75,0,0,0,11.5,0,1.25,1.25,0,0,1,2.5,0,5.75,5.75,0,0,0,11.5,0v-5a1.25,1.25,0,0,1,2.5,0v5A8.26,8.26,0,0,1,50.25,29.5Z"/><path class="cls-1" d="M57.25,17.5h-56a1.25,1.25,0,0,1-.93-2.08l8-9A1.21,1.21,0,0,1,9.25,6h40a1.21,1.21,0,0,1,.93.42l8,9a1.25,1.25,0,0,1-.93,2.08ZM4,15H54.47L48.69,8.5H9.81Z"/><path class="cls-1" d="M16.25,13.5a1.27,1.27,0,0,1-.78-.27,1.26,1.26,0,0,1-.2-1.76l4-5a1.25,1.25,0,0,1,2,1.56l-4,5A1.25,1.25,0,0,1,16.25,13.5Z"/><path class="cls-1" d="M29.25,13.5A1.25,1.25,0,0,1,28,12.25v-4a1.25,1.25,0,0,1,2.5,0v4A1.25,1.25,0,0,1,29.25,13.5Z"/><path class="cls-1" d="M42.25,13.5a1.25,1.25,0,0,1-1.07-.61l-3-5a1.25,1.25,0,1,1,2.14-1.28l3,5a1.25,1.25,0,0,1-1.07,1.89Z"/></g></g></g></svg>