<svg xmlns="http://www.w3.org/2000/svg" viewBox="0 0 84 84"><defs><style>.cls-1{fill:#b3b3b3;}</style></defs><title>partnership-manager</title><g id="Layer_2" data-name="Layer 2"><g id="Layer_1-2" data-name="Layer 1"><path class="cls-1" d="M48.93,72.36,43.67,56.57,47,54.36,45.42,52,42,54.32,38.58,52,37,54.36l3.31,2.21L35.07,72.36a1.4,1.4,0,0,0,.49,1.56l5.6,4.2a1.46,1.46,0,0,0,.84.28,1.44,1.44,0,0,0,.84-.28l5.6-4.2A1.4,1.4,0,0,0,48.93,72.36ZM42,75.25l-4-3,4-11.85,4,11.85Z"/><path class="cls-1" d="M78.55,47.79A8.33,8.33,0,0,0,79.8,43.4V33.6a1.4,1.4,0,0,0-1.4-1.4h-14A1.4,1.4,0,0,0,63,33.6v9.8a8.33,8.33,0,0,0,1.25,4.39,7,7,0,0,0-4.66,3.65,16.74,16.74,0,0,0-8.06-5.76A15.38,15.38,0,0,0,57.4,33.6V32a6.28,6.28,0,0,0,0-12.26V18.2a9.82,9.82,0,0,0-9.8-9.8H21a1.4,1.4,0,0,0-1.4,1.4v2.8a8.4,8.4,0,0,0,7,8.27V33.6a15.38,15.38,0,0,0,5.87,12.08,16.74,16.74,0,0,0-8.06,5.76,7,7,0,0,0-4.66-3.65A8.33,8.33,0,0,0,21,43.4V33.6a1.4,1.4,0,0,0-1.4-1.4H5.6a1.4,1.4,0,0,0-1.4,1.4v9.8a8.33,8.33,0,0,0,1.25,4.39A7,7,0,0,0,0,54.6v28A1.4,1.4,0,0,0,1.4,84H82.6A1.4,1.4,0,0,0,84,82.6v-28A7,7,0,0,0,78.55,47.79ZM57.4,22.69a3.5,3.5,0,0,1,0,6.42ZM7,35H18.2v5L14.82,43.4H11.2v2.8h4.2a1.41,1.41,0,0,0,1-.41l1.74-1.74a5.53,5.53,0,0,1-2.2,3.82h0a5.3,5.3,0,0,1-.71.45l-.09.05a5.21,5.21,0,0,1-.74.3l-.13,0a5.47,5.47,0,0,1-3.3,0l-.13,0a6.81,6.81,0,0,1-.74-.31L10,48.33a5.41,5.41,0,0,1-.72-.45h0A5.59,5.59,0,0,1,7,43.4Zm8.22,33L12.6,69.72,10,68,12.6,56.63ZM22.4,54.91a16.9,16.9,0,0,0-1,3.16l0,.16a13.75,13.75,0,0,0-.22,1.41c0,.1,0,.19,0,.28A15.62,15.62,0,0,0,21,61.6V81.2H2.8V54.6A4.2,4.2,0,0,1,7,50.4H8a8.26,8.26,0,0,0,2.91,1.22L7,68.29a1.38,1.38,0,0,0,.58,1.47l4.2,2.8a1.39,1.39,0,0,0,1.56,0l4.2-2.8a1.4,1.4,0,0,0,.59-1.47L14.32,51.62a8.26,8.26,0,0,0,2.91-1.22h1a4.2,4.2,0,0,1,4.2,4.2Zm0-42.31V11.2H47.6a7,7,0,0,1,7,7V29.26A7,7,0,0,1,49,22.4V19.6a1.4,1.4,0,0,0-1.4-1.4H28A5.6,5.6,0,0,1,22.4,12.6Zm7,21V21H46.2v1.4a9.82,9.82,0,0,0,6.87,9.35L48.42,36.4H37.8v2.8H49a1.41,1.41,0,0,0,1-.41l4.58-4.58A12.6,12.6,0,0,1,47.25,45c-.41.19-.82.35-1.24.5h0a12.59,12.59,0,0,1-8,0h0c-.42-.15-.83-.31-1.24-.5A12.62,12.62,0,0,1,29.4,33.6ZM60.2,81.2H23.8V61.6a13.71,13.71,0,0,1,.08-1.43c0-.09,0-.19,0-.28,0-.4.11-.79.19-1.18,0-.06,0-.12,0-.19a14.06,14.06,0,0,1,.92-2.72.11.11,0,0,0,0,0,14,14,0,0,1,10.82-8,15.28,15.28,0,0,0,12.2,0,14,14,0,0,1,10.82,8,.11.11,0,0,0,0,0,14.06,14.06,0,0,1,.92,2.72c0,.07,0,.13,0,.19.08.39.14.78.19,1.18,0,.09,0,.19,0,.28a13.71,13.71,0,0,1,.08,1.43ZM65.8,35H77v5L73.62,43.4H70v2.8h4.2a1.41,1.41,0,0,0,1-.41l1.74-1.74a5.53,5.53,0,0,1-2.2,3.82h0a6.13,6.13,0,0,1-.72.45l-.09.05a5.21,5.21,0,0,1-.74.3l-.13,0a5.47,5.47,0,0,1-3.3,0l-.13,0a6.81,6.81,0,0,1-.74-.31l-.09-.05a5.41,5.41,0,0,1-.72-.45h0A5.59,5.59,0,0,1,65.8,43.4ZM74,68,71.4,69.72,68.78,68,71.4,56.63ZM81.2,81.2H63V61.6a15.62,15.62,0,0,0-.09-1.68l0-.28c-.06-.47-.13-.94-.22-1.41a.75.75,0,0,1,0-.16,16.9,16.9,0,0,0-1-3.16V54.6a4.21,4.21,0,0,1,4.2-4.2h1a8.26,8.26,0,0,0,2.91,1.22L65.84,68.29a1.39,1.39,0,0,0,.58,1.47l4.2,2.8a1.39,1.39,0,0,0,1.56,0l4.2-2.8A1.38,1.38,0,0,0,77,68.29L73.12,51.62A8.26,8.26,0,0,0,76,50.4h1a4.2,4.2,0,0,1,4.2,4.2Z"/><rect class="cls-1" x="64.4" y="5.6" width="2.8" height="2.8"/><rect class="cls-1" x="70" y="5.6" width="2.8" height="2.8"/><rect class="cls-1" x="75.6" y="5.6" width="2.8" height="2.8"/><path class="cls-1" d="M82.6,0H60.2a1.4,1.4,0,0,0-1.4,1.4V12.6A1.4,1.4,0,0,0,60.2,14h3.62L62,15.81a1.4,1.4,0,0,0,1,2.39,1.36,1.36,0,0,0,.29,0L82.89,14A1.4,1.4,0,0,0,84,12.6V1.4A1.4,1.4,0,0,0,82.6,0ZM81.2,11.47l-13.86,3,.85-.85a1.4,1.4,0,0,0-1-2.39H61.6V2.8H81.2Z"/></g></g></svg>