<svg xmlns="http://www.w3.org/2000/svg" viewBox="0 0 68.66 65.35"><defs><style>.cls-1{fill:#b3b3b3;}</style></defs><title>people</title><g id="Layer_2" data-name="Layer 2"><g id="Layer_1-2" data-name="Layer 1"><path class="cls-1" d="M26.52,45.54V49a2.09,2.09,0,0,1-2.1,2.09,2,2,0,0,1-1.2-.36l-.81-.56-.78.56A2.14,2.14,0,0,1,18.3,49V46.35a10.89,10.89,0,0,1-2.73,3,4.83,4.83,0,0,0,4.86,4.5,4.72,4.72,0,0,0,2-.42,4.93,4.93,0,0,0,2,.42A4.88,4.88,0,0,0,29.31,49v-.28A13.57,13.57,0,0,1,26.52,45.54Zm0-33.55a6.71,6.71,0,1,0-8.27,0,10.18,10.18,0,0,0-3.69,2.68,13.66,13.66,0,0,1,1.51,2.57,7.65,7.65,0,0,1,12-.7,11.49,11.49,0,0,1,1.65-2.32A10,10,0,0,0,26.55,12Zm-4.14-1.34a3.93,3.93,0,1,1,3.94-3.92A3.92,3.92,0,0,1,22.41,10.65Z"/><path class="cls-1" d="M50.38,12A6.66,6.66,0,0,0,53,6.73,6.72,6.72,0,1,0,42.11,12a10.48,10.48,0,0,0-3.86,2.87,25.65,25.65,0,0,1,1.35,2.85,7.73,7.73,0,0,1,13.16-.19,6.36,6.36,0,0,1,1.23-3A10.6,10.6,0,0,0,50.38,12Zm-4.13-1.34a3.93,3.93,0,1,1,3.91-3.92A3.93,3.93,0,0,1,46.25,10.65Zm4.1,34.28V49A2.13,2.13,0,0,1,47,50.74l-.78-.56-.81.56a2,2,0,0,1-1.21.36A2.09,2.09,0,0,1,42.14,49V45a12.92,12.92,0,0,1-2.8,4.08,4.92,4.92,0,0,0,6.91,4.36,4.88,4.88,0,0,0,6.26-2.12C51.69,49.23,51,47.08,50.35,44.93Z"/><path class="cls-1" d="M62.28,23.43a6.72,6.72,0,1,0-8.25,0,10.49,10.49,0,0,0-6.38,9.65V41a10.55,10.55,0,0,0,3.6,7.91V60.44a4.9,4.9,0,0,0,6.91,4.48,4.86,4.86,0,0,0,2,.43,4.91,4.91,0,0,0,4.9-4.91V48.87A10.41,10.41,0,0,0,68.66,41V33.08A10.49,10.49,0,0,0,62.28,23.43Zm-4.12-9.19a3.93,3.93,0,1,1-3.93,3.92A3.93,3.93,0,0,1,58.16,14.24ZM65.87,41a7.67,7.67,0,0,1-3.05,6.14l-.56.42V60.44a2.1,2.1,0,0,1-2.1,2.11,2.08,2.08,0,0,1-1.2-.37l-.8-.56-.8.56a2.13,2.13,0,0,1-1.21.37A2.11,2.11,0,0,1,54,60.44V47.51l-.54-.42A7.75,7.75,0,0,1,50.44,41V33.08a7.72,7.72,0,0,1,15.43,0Z"/><path class="cls-1" d="M38.46,23.43a6.72,6.72,0,1,0-8.26,0,10.51,10.51,0,0,0-6.38,9.65V41a10.59,10.59,0,0,0,3.6,7.91V60.44a4.91,4.91,0,0,0,4.91,4.91,4.86,4.86,0,0,0,2-.43,4.89,4.89,0,0,0,6.9-4.48V48.87A10.58,10.58,0,0,0,44.84,41V33.08A10.49,10.49,0,0,0,38.46,23.43Zm-4.13-9.19a3.93,3.93,0,1,1-3.92,3.92A3.93,3.93,0,0,1,34.33,14.24ZM42,41a7.64,7.64,0,0,1-3,6.14l-.55.42V60.44a2.11,2.11,0,0,1-3.31,1.74l-.8-.56-.8.56a2.11,2.11,0,0,1-3.31-1.74V47.51l-.55-.42A7.76,7.76,0,0,1,26.62,41V33.08a7.71,7.71,0,0,1,15.42,0Z"/><path class="cls-1" d="M14.64,23.43a6.72,6.72,0,1,0-8.26,0A10.49,10.49,0,0,0,0,33.08V41a10.55,10.55,0,0,0,3.6,7.91V60.44a4.9,4.9,0,0,0,6.91,4.48,4.86,4.86,0,0,0,2,.43,4.91,4.91,0,0,0,4.9-4.91V48.87A10.57,10.57,0,0,0,21,41V33.08A10.5,10.5,0,0,0,14.64,23.43Zm-4.13-9.19a3.93,3.93,0,1,1-3.93,3.92A3.93,3.93,0,0,1,10.51,14.24ZM18.22,41a7.64,7.64,0,0,1-3,6.14l-.56.42V60.44a2.11,2.11,0,0,1-3.3,1.74l-.8-.56-.8.56a2.12,2.12,0,0,1-3.32-1.74V47.51l-.55-.42a7.76,7.76,0,0,1-3-6.14V33.08a7.72,7.72,0,0,1,15.43,0Z"/></g></g></svg>