<svg xmlns="http://www.w3.org/2000/svg" viewBox="0 0 70.88 97"><defs><style>.cls-1{fill:#b3b3b3;}</style></defs><title>training</title><g id="Layer_2" data-name="Layer 2"><g id="Layer_1-2" data-name="Layer 1"><path class="cls-1" d="M69,7.46H56V5.6A1.87,1.87,0,0,0,54.1,3.73H42.9A9.33,9.33,0,0,0,28,3.73H16.79A1.87,1.87,0,0,0,14.92,5.6V7.46h-13A1.87,1.87,0,0,0,0,9.33v85.8A1.87,1.87,0,0,0,1.87,97H69a1.87,1.87,0,0,0,1.86-1.87V9.33A1.87,1.87,0,0,0,69,7.46Zm-50.37,0H29a1.87,1.87,0,0,0,1.62-.93,5.59,5.59,0,0,1,9.69,0,1.85,1.85,0,0,0,1.61.93H52.23v7.46H18.65Zm48.5,78.35v7.46H3.73V11.19H14.92v5.6a1.87,1.87,0,0,0,1.87,1.86H54.1A1.86,1.86,0,0,0,56,16.79v-5.6H67.15V85.81Z"/><path class="cls-1" d="M23.4,28.32a1.43,1.43,0,0,0-2,.2L15.53,35.7l-3.32-4.29A1.43,1.43,0,0,0,10,33.16l4.42,5.71a1.43,1.43,0,0,0,1.11.55h0a1.43,1.43,0,0,0,1.11-.52l7-8.57A1.44,1.44,0,0,0,23.4,28.32Z"/><path class="cls-1" d="M60.34,28.12H32.58a1.87,1.87,0,0,0,0,3.73H60.34a1.87,1.87,0,0,0,0-3.73Z"/><path class="cls-1" d="M43,35.58H32.58a1.87,1.87,0,0,0,0,3.73H43a1.87,1.87,0,0,0,0-3.73Z"/><path class="cls-1" d="M23.4,50.32a1.43,1.43,0,0,0-2,.2L15.53,57.7l-3.32-4.29A1.43,1.43,0,0,0,10,55.16l4.42,5.71a1.43,1.43,0,0,0,1.11.55h0a1.43,1.43,0,0,0,1.11-.52l7-8.57A1.44,1.44,0,0,0,23.4,50.32Z"/><path class="cls-1" d="M60.34,50.12H32.58a1.87,1.87,0,0,0,0,3.73H60.34a1.87,1.87,0,0,0,0-3.73Z"/><path class="cls-1" d="M43,57.58H32.58a1.87,1.87,0,0,0,0,3.73H43a1.87,1.87,0,0,0,0-3.73Z"/><path class="cls-1" d="M23.4,72.32a1.43,1.43,0,0,0-2,.2L15.53,79.7l-3.32-4.29A1.43,1.43,0,0,0,10,77.16l4.42,5.71a1.43,1.43,0,0,0,1.11.55h0a1.43,1.43,0,0,0,1.11-.52l7-8.57A1.44,1.44,0,0,0,23.4,72.32Z"/><path class="cls-1" d="M60.34,72.12H32.58a1.87,1.87,0,0,0,0,3.73H60.34a1.87,1.87,0,0,0,0-3.73Z"/><path class="cls-1" d="M43,79.58H32.58a1.87,1.87,0,0,0,0,3.73H43a1.87,1.87,0,0,0,0-3.73Z"/></g></g></svg>